<?xml version="1.0" standalone="no"?><!DOCTYPE svg PUBLIC "-//W3C//DTD SVG 1.1//EN" "http://www.w3.org/Graphics/SVG/1.1/DTD/svg11.dtd"><svg t="1750295897952" class="icon" viewBox="0 0 1024 1024" version="1.1" xmlns="http://www.w3.org/2000/svg" p-id="11233" xmlns:xlink="http://www.w3.org/1999/xlink" width="32" height="32"><path d="M337.638 320h85.108l65.382 179.533c8.307 23.872 15.565 49.318 23.36 74.24h2.56c8.294-24.909 15.066-50.355 23.36-74.24L601.254 320h85.108v384h-70.055V543.654c0-36.326 5.696-89.779 9.331-126.092h-2.073l-31.13 90.278-59.161 161.382h-44.11l-59.66-161.382-30.618-90.278H396.8c3.635 36.313 9.856 89.766 9.856 126.092V704h-69.018z" fill="#657CFF" p-id="11234"></path><path d="M768 64a192 192 0 0 1 192 192v512a192 192 0 0 1-192 192H256A192 192 0 0 1 64 768V256A192 192 0 0 1 256 64h512m0-64H256C114.611 0 0 114.611 0 256v512c0 141.389 114.611 256 256 256h512c141.389 0 256-114.611 256-256V256C1024 114.611 909.389 0 768 0z" fill="#657CFF" p-id="11235"></path></svg>