<?xml version="1.0" standalone="no"?><!DOCTYPE svg PUBLIC "-//W3C//DTD SVG 1.1//EN" "http://www.w3.org/Graphics/SVG/1.1/DTD/svg11.dtd"><svg t="1750295908536" class="icon" viewBox="0 0 1024 1024" version="1.1" xmlns="http://www.w3.org/2000/svg" p-id="11383" xmlns:xlink="http://www.w3.org/1999/xlink" width="32" height="32"><path d="M224.096 225.536a43.84 43.84 0 0 1 49.056 19.616L512 643.392 750.848 245.12a43.84 43.84 0 0 1 49.056-19.616C818.88 230.72 832 247.744 832 267.2v489.6c0 23.872-19.52 43.2-43.648 43.2a43.424 43.424 0 0 1-43.616-43.2V424.576l-195.2 325.472c-7.872 13.12-22.144 21.152-37.536 21.152-15.392 0-29.664-8.032-37.504-21.12l-195.2-325.504V756.8c0 23.872-19.552 43.2-43.648 43.2A43.424 43.424 0 0 1 192 756.8V267.2c0-19.424 13.12-36.48 32.096-41.664z" fill="#557FFF" p-id="11384"></path></svg>