<?xml version="1.0" standalone="no"?><!DOCTYPE svg PUBLIC "-//W3C//DTD SVG 1.1//EN" "http://www.w3.org/Graphics/SVG/1.1/DTD/svg11.dtd"><svg t="1750295957963" class="icon" viewBox="0 0 1024 1024" version="1.1" xmlns="http://www.w3.org/2000/svg" p-id="12422" xmlns:xlink="http://www.w3.org/1999/xlink" width="32" height="32"><path d="M465.100854 150.902872m-66.493413 0a64.979 64.979 0 1 0 132.986827 0 64.979 64.979 0 1 0-132.986827 0Z" fill="#1296db" p-id="12423"></path><path d="M465.100854 219.442898c-37.792745 0-68.540026-30.746258-68.540026-68.540026s30.746258-68.540026 68.540026-68.540026c37.792745 0 68.540026 30.746258 68.540026 68.540026S502.892575 219.442898 465.100854 219.442898zM465.100854 86.457094c-35.536354 0-64.446801 28.910447-64.446801 64.446801s28.910447 64.446801 64.446801 64.446801 64.446801-28.910447 64.446801-64.446801S500.636185 86.457094 465.100854 86.457094z" p-id="12424" fill="#1296db"></path><path d="M235.877195 272.000927m-50.511417 0a49.361 49.361 0 1 0 101.022835 0 49.361 49.361 0 1 0-101.022835 0Z" fill="#1296db" p-id="12425"></path><path d="M235.877195 324.55998c-28.981055 0-52.55803-23.577998-52.55803-52.55803s23.577998-52.55803 52.55803-52.55803 52.55803 23.577998 52.55803 52.55803S264.85825 324.55998 235.877195 324.55998zM235.877195 223.536123c-26.723641 0-48.464805 21.741163-48.464805 48.464805s21.741163 48.464805 48.464805 48.464805 48.464805-21.741163 48.464805-48.464805S262.600837 223.536123 235.877195 223.536123z" p-id="12426" fill="#1296db"></path><path d="M701.559287 272.000927m-50.511417 0a49.361 49.361 0 1 0 101.022835 0 49.361 49.361 0 1 0-101.022835 0Z" fill="#1296db" p-id="12427"></path><path d="M701.56031 324.55998c-28.980032 0-52.55803-23.577998-52.55803-52.55803s23.577998-52.55803 52.55803-52.55803 52.55803 23.577998 52.55803 52.55803S730.540342 324.55998 701.56031 324.55998zM701.56031 223.536123c-26.723641 0-48.464805 21.741163-48.464805 48.464805s21.741163 48.464805 48.464805 48.464805 48.464805-21.741163 48.464805-48.464805S728.283951 223.536123 701.56031 223.536123z" p-id="12428" fill="#1296db"></path><path d="M231.914954 467.299939m-40.545438 0a39.622 39.622 0 1 0 81.090876 0 39.622 39.622 0 1 0-81.090876 0Z" fill="#1296db" p-id="12429"></path><path d="M231.914954 509.890966c-23.484877 0-42.592051-19.107173-42.592051-42.592051s19.10615-42.591027 42.592051-42.591027 42.592051 19.10615 42.592051 42.591027S255.399831 509.890966 231.914954 509.890966zM231.914954 428.801113c-21.228487 0-38.498826 17.270339-38.498826 38.497802 0 21.228487 17.270339 38.498826 38.498826 38.498826s38.498826-17.270339 38.498826-38.498826C270.412756 446.071452 253.142417 428.801113 231.914954 428.801113z" p-id="12430" fill="#1296db"></path><path d="M84.021625 627.39824m-28.42233 0a27.775 27.775 0 1 0 56.844659 0 27.775 27.775 0 1 0-56.844659 0Z" fill="#1296db" p-id="12431"></path><path d="M84.021625 657.867182c-16.800641 0-30.468942-13.668301-30.468942-30.468942S67.220984 596.928275 84.021625 596.928275s30.468942 13.668301 30.468942 30.468942S100.822267 657.867182 84.021625 657.867182zM84.021625 601.021499c-14.543228 0-26.375717 11.831466-26.375717 26.375717s11.83249 26.375717 26.375717 26.375717 26.375717-11.831466 26.375717-26.375717S98.565876 601.021499 84.021625 601.021499z" p-id="12432" fill="#1296db"></path><path d="M379.807259 627.39824m-28.42233 0a27.775 27.775 0 1 0 56.844659 0 27.775 27.775 0 1 0-56.844659 0Z" fill="#1296db" p-id="12433"></path><path d="M379.807259 657.867182c-16.800641 0-30.468942-13.668301-30.468942-30.468942S363.006618 596.928275 379.807259 596.928275s30.468942 13.668301 30.468942 30.468942S396.6079 657.867182 379.807259 657.867182zM379.807259 601.021499c-14.543228 0-26.375717 11.831466-26.375717 26.375717s11.83249 26.375717 26.375717 26.375717 26.375717-11.831466 26.375717-26.375717S394.35151 601.021499 379.807259 601.021499z" p-id="12434" fill="#1296db"></path><path d="M573.463864 469.346551m-40.545438 0a39.622 39.622 0 1 0 81.090876 0 39.622 39.622 0 1 0-81.090876 0Z" fill="#1296db" p-id="12435"></path><path d="M573.463864 511.937578c-23.484877 0-42.592051-19.107173-42.592051-42.592051s19.107173-42.591027 42.592051-42.591027 42.591027 19.10615 42.591027 42.591027S596.948741 511.937578 573.463864 511.937578zM573.463864 430.847725c-21.228487 0-38.498826 17.270339-38.498826 38.497802 0 21.228487 17.270339 38.498826 38.498826 38.498826 21.227464 0 38.497802-17.270339 38.497802-38.498826C611.961666 448.118064 594.691327 430.847725 573.463864 430.847725z" p-id="12436" fill="#1296db"></path><path d="M866.031199 465.253326m-40.545438 0a39.622 39.622 0 1 0 81.090876 0 39.622 39.622 0 1 0-81.090876 0Z" fill="#1296db" p-id="12437"></path><path d="M866.031199 507.844354c-23.484877 0-42.592051-19.107173-42.592051-42.592051s19.107173-42.591027 42.592051-42.591027 42.591027 19.10615 42.591027 42.591027S889.516076 507.844354 866.031199 507.844354zM866.031199 426.7545c-21.228487 0-38.498826 17.270339-38.498826 38.497802 0 21.228487 17.270339 38.498826 38.498826 38.498826 21.227464 0 38.497802-17.270339 38.497802-38.498826C904.529001 444.024839 887.258663 426.7545 866.031199 426.7545z" p-id="12438" fill="#1296db"></path><path d="M244.491387 277.79898 237.375316 273.78455 461.603193 147.285484 468.718241 151.299915Z" p-id="12439" fill="#1296db"></path><path d="M689.565115 272.000927 461.482443 151.054321 468.590328 147.285484 696.671976 268.232091Z" p-id="12440" fill="#1296db"></path><path d="M227.520877 277.79898l10.233062 0 0 187.454346-10.233062 0 0-187.454346Z" p-id="12441" fill="#1296db"></path><path d="M83.519182 637.8288 74.797543 634.337279 227.932246 471.555869 236.652861 475.048413Z" p-id="12442" fill="#1296db"></path><path d="M371.137809 632.476909 231.914954 472.895377 240.584404 469.64638 379.807259 629.227911Z" p-id="12443" fill="#1296db"></path><path d="M582.266343 472.409306 573.463864 469.050816 693.115987 274.430256 701.919491 277.788747Z" p-id="12444" fill="#1296db"></path><path d="M858.057597 468.975091 701.919491 284.076964 709.892069 279.988856 866.030176 464.886983Z" p-id="12445" fill="#1296db"></path><path d="M792.084023 627.39824m-28.42233 0a27.775 27.775 0 1 0 56.844659 0 27.775 27.775 0 1 0-56.844659 0Z" fill="#1296db" p-id="12446"></path><path d="M792.084023 657.867182c-16.800641 0-30.468942-13.668301-30.468942-30.468942S775.283382 596.928275 792.084023 596.928275s30.468942 13.668301 30.468942 30.468942S808.884664 657.867182 792.084023 657.867182zM792.084023 601.021499c-14.544251 0-26.375717 11.831466-26.375717 26.375717s11.831466 26.375717 26.375717 26.375717 26.375717-11.831466 26.375717-26.375717S806.628274 601.021499 792.084023 601.021499z" p-id="12447" fill="#1296db"></path><path d="M939.977351 627.39824m-28.42233 0a27.775 27.775 0 1 0 56.844659 0 27.775 27.775 0 1 0-56.844659 0Z" fill="#1296db" p-id="12448"></path><path d="M939.977351 657.867182c-16.800641 0-30.468942-13.668301-30.468942-30.468942S923.17671 596.928275 939.977351 596.928275s30.468942 13.668301 30.468942 30.468942S956.777993 657.867182 939.977351 657.867182zM939.977351 601.021499c-14.544251 0-26.375717 11.831466-26.375717 26.375717s11.831466 26.375717 26.375717 26.375717 26.375717-11.831466 26.375717-26.375717S954.521602 601.021499 939.977351 601.021499z" p-id="12449" fill="#1296db"></path><path d="M800.630676 630.606305 792.084023 628.581182 865.693508 468.535069 874.239138 470.560192Z" p-id="12450" fill="#1296db"></path><path d="M929.143609 629.910457 859.024621 470.462978 869.859387 468.882993 939.977351 628.330472Z" p-id="12451" fill="#1296db"></path><path d="M68.797899 667.076938l29.031197 0 0 237.313917-29.031197 0 0-237.313917Z" p-id="12452" fill="#1296db"></path><path d="M365.29166 667.076938l29.031197 0 0 164.857698-29.031197 0 0-164.857698Z" p-id="12453" fill="#1296db"></path><path d="M777.568425 667.076938l29.031197 0 0 187.857529-29.031197 0 0-187.857529Z" p-id="12454" fill="#1296db"></path><path d="M925.461753 667.076938l29.031197 0 0 118.656447-29.031197 0 0-118.656447Z" p-id="12455" fill="#1296db"></path></svg>